<?xml version="1.0" encoding="utf-8"?>
<svg viewBox="0 0 500 500" xmlns="http://www.w3.org/2000/svg">
  <g id="icomoon-ignore" transform="matrix(5.2706298828125, 0, 0, 5.107229232788086, 108.28348541259766, 101.1123046875)" style=""/>
  <path d="M 201.039 120.201 L 201.039 133.469 L 205.256 134.527 C 210.026 135.722 214.574 137.576 218.78 140.048 L 222.549 142.264 L 232.352 132.765 L 244.274 144.317 L 234.323 153.96 L 236.469 157.576 C 238.846 161.585 240.622 165.926 241.75 170.482 L 242.783 174.654 L 257.245 174.654 L 257.245 190.992 L 242.456 190.992 L 241.318 194.986 C 240.09 199.297 238.245 203.433 235.836 207.274 L 233.549 210.931 L 244.28 221.324 L 232.358 232.877 L 221.479 222.335 L 217.753 224.414 C 213.884 226.569 209.683 228.219 205.272 229.322 L 201.055 230.374 L 201.055 245.445 L 184.195 245.445 L 184.195 230.374 L 179.978 229.322 C 175.566 228.219 171.366 226.569 167.497 224.414 L 163.766 222.335 L 152.887 232.877 L 140.965 221.324 L 151.696 210.931 L 149.408 207.274 C 147 203.428 145.155 199.297 143.927 194.986 L 142.788 190.992 L 127.999 190.992 L 127.999 174.654 L 142.462 174.654 L 143.495 170.482 C 144.617 165.931 146.399 161.585 148.776 157.576 L 150.921 153.96 L 140.97 144.317 L 152.892 132.765 L 162.696 142.264 L 166.464 140.048 C 170.67 137.576 175.219 135.717 179.989 134.527 L 184.205 133.469 L 184.205 120.201 L 201.066 120.201 L 201.039 120.201 Z M 192.612 207.335 C 206.558 207.335 217.9 196.339 217.9 182.826 C 217.9 169.312 206.558 158.316 192.612 158.316 C 178.666 158.316 167.323 169.312 167.323 182.826 C 167.323 196.339 178.666 207.335 192.612 207.335 Z M 206.663 114.757 L 178.565 114.757 L 178.565 129.256 C 173.2 130.599 168.156 132.678 163.534 135.395 L 152.876 125.068 L 133.011 144.322 L 143.895 154.869 C 141.271 159.297 139.283 164.113 138.024 169.215 L 122.37 169.215 L 122.37 196.442 L 138.498 196.442 C 139.884 201.309 141.95 205.89 144.591 210.109 L 133.006 221.334 L 152.871 240.588 L 164.683 229.143 C 168.983 231.538 173.643 233.372 178.56 234.603 L 178.56 250.9 L 206.658 250.9 L 206.658 234.603 C 211.575 233.372 216.235 231.538 220.536 229.143 L 232.347 240.588 L 252.212 221.334 L 240.627 210.109 C 243.268 205.89 245.334 201.309 246.72 196.442 L 262.848 196.442 L 262.848 169.215 L 247.194 169.215 C 245.935 164.113 243.948 159.302 241.323 154.869 L 252.207 144.322 L 232.342 125.068 L 221.685 135.395 C 217.062 132.678 212.018 130.599 206.653 129.256 L 206.653 114.757 L 206.663 114.757 Z M 192.612 201.891 C 181.744 201.891 172.942 193.357 172.942 182.826 C 172.942 172.295 181.744 163.766 192.612 163.766 C 203.48 163.766 212.282 172.3 212.282 182.826 C 212.282 193.357 203.48 201.891 192.612 201.891 Z" style="fill: rgb(250, 250, 250);"/>
</svg>